<svg width="208" height="209" viewBox="0 0 208 209" fill="none" xmlns="http://www.w3.org/2000/svg">
<path d="M78 43.5417H147.333C154.229 43.5417 160.842 46.2941 165.718 51.1935C170.594 56.0929 173.333 62.7379 173.333 69.6667V121.917C173.345 126.722 172.025 131.435 169.52 135.528M147.333 148.042H130L104 174.167L78 148.042H60.6667C53.771 148.042 47.1578 145.289 42.2819 140.39C37.4059 135.49 34.6667 128.845 34.6667 121.917V69.6667C34.6667 60.1572 39.728 51.8233 47.294 47.2601M69.3333 78.375H78M112.667 78.375H138.667M69.3333 113.208H112.667M26 26.125L182 182.875" stroke="#C12121" stroke-opacity="0.5" stroke-width="8" stroke-linecap="round" stroke-linejoin="round"/>
</svg>
