<svg xmlns="http://www.w3.org/2000/svg" xmlns:xlink="http://www.w3.org/1999/xlink" width="35" height="35" viewBox="0 0 35 35">
  <defs>
    <clipPath id="clip-path">
      <rect id="Rectangle_8" data-name="Rectangle 8" width="30" height="30" transform="translate(0.546 0.818)" fill="#fff"/>
    </clipPath>
    <clipPath id="clip-ic_blikosda_active_by_design">
      <rect width="35" height="35"/>
    </clipPath>
  </defs>
  <g id="ic_blikosda_active_by_design" clip-path="url(#clip-ic_blikosda_active_by_design)">
    <g id="Group_14" data-name="Group 14" transform="translate(1.954 1.682)" clip-path="url(#clip-path)">
      <path id="Path_26" data-name="Path 26" d="M21.682,10.974V8.515a5.833,5.833,0,0,0-11.667,0v5.833a.833.833,0,0,0,1.667,0V12.64h6.667V10.974H11.682V8.515a4.167,4.167,0,1,1,8.333,0v5.792a.833.833,0,1,0,1.667,0V12.64h4.167v15h-20v-15h2.5V10.974H4.182V27.715a1.592,1.592,0,0,0,1.592,1.592h20.15a1.592,1.592,0,0,0,1.592-1.592V10.974Z" transform="translate(-0.303 -0.155)" fill="#fff"/>
    </g>
  </g>
</svg>
