<svg xmlns="http://www.w3.org/2000/svg" xmlns:xlink="http://www.w3.org/1999/xlink" width="35" height="35" viewBox="0 0 35 35">
  <defs>
    <clipPath id="clip-ic_home_by_design">
      <rect width="35" height="35"/>
    </clipPath>
  </defs>
  <g id="ic_home_by_design" clip-path="url(#clip-ic_home_by_design)">
    <path id="Path_24" data-name="Path 24" d="M25.911,28.843H6.819a1.358,1.358,0,0,1-.964-.4,1.379,1.379,0,0,1-.4-.972V15.1H1.364L15.447,2.2a1.356,1.356,0,0,1,1.836,0L31.366,15.1H27.275V27.469a1.38,1.38,0,0,1-.4.972A1.359,1.359,0,0,1,25.911,28.843ZM8.182,26.095H24.548V12.569L16.365,5.074,8.182,12.569Z" transform="translate(1.135 2.157)" fill="#b21e20"/>
  </g>
</svg>
