<svg xmlns="http://www.w3.org/2000/svg" xmlns:xlink="http://www.w3.org/1999/xlink" width="35" height="35" viewBox="0 0 35 35">
  <defs>
    <clipPath id="clip-path">
      <rect id="Rectangle_9" data-name="Rectangle 9" width="30" height="30" fill="#fff"/>
    </clipPath>
    <clipPath id="clip-ic_news_by_design">
      <rect width="35" height="35"/>
    </clipPath>
  </defs>
  <g id="ic_news_by_design" clip-path="url(#clip-ic_news_by_design)">
    <path id="news-20-regular" d="M7.119,8.972a.853.853,0,0,1,.853-.853H19.916a.853.853,0,1,1,0,1.706H7.972A.853.853,0,0,1,7.119,8.972ZM16.5,13.238a.853.853,0,0,0,0,1.706h3.413a.853.853,0,1,0,0-1.706ZM15.65,19.21a.853.853,0,0,1,.853-.853h3.413a.853.853,0,1,1,0,1.706H16.5A.853.853,0,0,1,15.65,19.21ZM7.972,13.238a.853.853,0,0,0-.853.853V19.21a.853.853,0,0,0,.853.853h5.119a.853.853,0,0,0,.853-.853V14.091a.853.853,0,0,0-.853-.853Zm.853,5.119V14.944h3.413v3.413ZM2,6.413A3.413,3.413,0,0,1,5.413,3H22.475a3.413,3.413,0,0,1,3.413,3.413V8.119A3.413,3.413,0,0,1,29.3,11.531v9.385a4.266,4.266,0,0,1-4.266,4.266H6.266A4.266,4.266,0,0,1,2,20.916Zm22.182,0a1.706,1.706,0,0,0-1.706-1.706H5.413A1.706,1.706,0,0,0,3.706,6.413v14.5a2.559,2.559,0,0,0,2.559,2.559H25.035a2.559,2.559,0,0,0,2.559-2.559V11.531a1.706,1.706,0,0,0-1.706-1.706V20.916a.853.853,0,1,1-1.706,0Z" transform="translate(1.85 3.409)" fill="#b21e20"/>
  </g>
</svg>
