<svg xmlns="http://www.w3.org/2000/svg" xmlns:xlink="http://www.w3.org/1999/xlink" width="35" height="35" viewBox="0 0 35 35">
  <defs>
    <clipPath id="clip-path">
      <rect id="Rectangle_9" data-name="Rectangle 9" width="30" height="30" fill="#fff"/>
    </clipPath>
    <clipPath id="clip-ic_new_wisata_by_design">
      <rect width="35" height="35"/>
    </clipPath>
  </defs>
  <g id="ic_new_wisata_by_design" clip-path="url(#clip-ic_new_wisata_by_design)">
    <g id="Group_20" data-name="Group 20" transform="translate(1.5 3.378)">
      <path id="Path_46" data-name="Path 46" d="M3.463,13.119l-.185-.557c-.02-.059,0-.132.044-.132h.372c.04,0,.064.073.044.132l-.185.557C3.532,13.177,3.483,13.177,3.463,13.119Z" transform="translate(-0.772 1.102)" fill="none" stroke="#e02b1a" stroke-miterlimit="10" stroke-width="1"/>
      <path id="Path_47" data-name="Path 47" d="M4.321,13.119l-.185-.557c-.02-.059,0-.132.044-.132h.372c.04,0,.064.073.044.132l-.185.557C4.389,13.177,4.34,13.177,4.321,13.119Z" transform="translate(-1.064 1.102)" fill="none" stroke="#e02b1a" stroke-miterlimit="10" stroke-width="1"/>
      <path id="Path_48" data-name="Path 48" d="M5.177,13.119l-.185-.557c-.02-.059,0-.132.044-.132h.372c.04,0,.064.073.044.132l-.185.557C5.245,13.177,5.2,13.177,5.177,13.119Z" transform="translate(-1.355 1.102)" fill="none" stroke="#e02b1a" stroke-miterlimit="10" stroke-width="1"/>
      <path id="Path_49" data-name="Path 49" d="M6.034,13.119l-.185-.557c-.02-.059,0-.132.044-.132h.372c.04,0,.064.073.044.132l-.185.557C6.1,13.177,6.053,13.177,6.034,13.119Z" transform="translate(-1.646 1.102)" fill="none" stroke="#e02b1a" stroke-miterlimit="10" stroke-width="1"/>
      <path id="Path_50" data-name="Path 50" d="M6.89,13.119,6.7,12.561c-.02-.059,0-.132.044-.132H7.12c.04,0,.064.073.044.132l-.185.557C6.959,13.177,6.909,13.177,6.89,13.119Z" transform="translate(-1.937 1.102)" fill="none" stroke="#e02b1a" stroke-miterlimit="10" stroke-width="1"/>
      <path id="Path_51" data-name="Path 51" d="M7.746,13.119l-.185-.557c-.02-.059,0-.132.044-.132h.372c.04,0,.064.073.044.132l-.185.557C7.815,13.177,7.766,13.177,7.746,13.119Z" transform="translate(-2.228 1.102)" fill="none" stroke="#e02b1a" stroke-miterlimit="10" stroke-width="1"/>
      <path id="Path_52" data-name="Path 52" d="M8.6,13.119l-.185-.557c-.02-.059,0-.132.044-.132h.372c.04,0,.064.073.044.132l-.185.557C8.671,13.177,8.622,13.177,8.6,13.119Z" transform="translate(-2.519 1.102)" fill="none" stroke="#e02b1a" stroke-miterlimit="10" stroke-width="1"/>
      <path id="Path_53" data-name="Path 53" d="M9.458,13.119l-.185-.557c-.02-.059,0-.132.044-.132h.372c.04,0,.064.073.044.132l-.185.557C9.527,13.177,9.478,13.177,9.458,13.119Z" transform="translate(-2.314 1.102)" fill="none" stroke="#e02b1a" stroke-miterlimit="10" stroke-width="1"/>
      <path id="Path_54" data-name="Path 54" d="M10.314,13.119l-.185-.557c-.02-.059,0-.132.044-.132h.372c.04,0,.064.073.044.132l-.185.557C10.383,13.177,10.334,13.177,10.314,13.119Z" transform="translate(-2.554 1.102)" fill="none" stroke="#e02b1a" stroke-miterlimit="10" stroke-width="1"/>
      <path id="Path_55" data-name="Path 55" d="M11.17,13.119l-.185-.557c-.02-.059,0-.132.044-.132H11.4c.04,0,.064.073.044.132l-.185.557C11.24,13.177,11.19,13.177,11.17,13.119Z" transform="translate(-2.794 1.102)" fill="none" stroke="#e02b1a" stroke-miterlimit="10" stroke-width="1"/>
      <path id="Path_56" data-name="Path 56" d="M12.027,13.119l-.185-.557c-.02-.059,0-.132.044-.132h.372c.04,0,.064.073.044.132l-.185.557C12.1,13.177,12.046,13.177,12.027,13.119Z" transform="translate(-3.033 1.102)" fill="none" stroke="#e02b1a" stroke-miterlimit="10" stroke-width="1"/>
      <path id="Path_57" data-name="Path 57" d="M12.883,13.119l-.185-.557c-.02-.059,0-.132.044-.132h.372c.04,0,.064.073.044.132l-.185.557C12.952,13.177,12.9,13.177,12.883,13.119Z" transform="translate(-3.273 1.102)" fill="none" stroke="#e02b1a" stroke-miterlimit="10" stroke-width="1"/>
      <path id="Path_58" data-name="Path 58" d="M13.739,13.119l-.185-.557c-.02-.059,0-.132.044-.132h.372c.04,0,.064.073.044.132l-.185.557C13.808,13.177,13.759,13.177,13.739,13.119Z" transform="translate(-3.513 1.102)" fill="none" stroke="#e02b1a" stroke-miterlimit="10" stroke-width="1"/>
      <path id="Path_59" data-name="Path 59" d="M14.6,13.119l-.185-.557c-.02-.059,0-.132.044-.132h.372c.04,0,.064.073.044.132l-.185.557C14.665,13.177,14.615,13.177,14.6,13.119Z" transform="translate(-3.753 1.102)" fill="none" stroke="#e02b1a" stroke-miterlimit="10" stroke-width="1"/>
      <path id="Path_60" data-name="Path 60" d="M15.453,13.119l-.185-.557c-.02-.059,0-.132.044-.132h.372c.04,0,.064.073.044.132l-.185.557C15.521,13.177,15.473,13.177,15.453,13.119Z" transform="translate(-3.993 1.102)" fill="none" stroke="#e02b1a" stroke-miterlimit="10" stroke-width="1"/>
      <path id="Path_61" data-name="Path 61" d="M16.309,13.119l-.185-.557c-.02-.059,0-.132.044-.132h.372c.04,0,.064.073.044.132l-.185.557C16.377,13.177,16.329,13.177,16.309,13.119Z" transform="translate(-4.232 1.102)" fill="none" stroke="#e02b1a" stroke-miterlimit="10" stroke-width="1"/>
      <path id="Path_62" data-name="Path 62" d="M17.166,13.119l-.185-.557c-.02-.059,0-.132.044-.132H17.4c.04,0,.064.073.044.132l-.185.557C17.235,13.177,17.185,13.177,17.166,13.119Z" transform="translate(-4.472 1.102)" fill="none" stroke="#e02b1a" stroke-miterlimit="10" stroke-width="1"/>
      <path id="Path_63" data-name="Path 63" d="M18.022,13.119l-.185-.557c-.02-.059,0-.132.044-.132h.372c.04,0,.064.073.044.132l-.185.557C18.091,13.177,18.041,13.177,18.022,13.119Z" transform="translate(-4.712 1.102)" fill="none" stroke="#e02b1a" stroke-miterlimit="10" stroke-width="1"/>
      <path id="Path_64" data-name="Path 64" d="M18.878,13.119l-.185-.557c-.02-.059,0-.132.044-.132h.372c.04,0,.064.073.044.132l-.185.557C18.947,13.177,18.9,13.177,18.878,13.119Z" transform="translate(-4.952 1.102)" fill="none" stroke="#e02b1a" stroke-miterlimit="10" stroke-width="1"/>
      <path id="Path_65" data-name="Path 65" d="M19.734,13.119l-.185-.557c-.02-.059,0-.132.044-.132h.372c.04,0,.064.073.044.132l-.185.557C19.8,13.177,19.754,13.177,19.734,13.119Z" transform="translate(-5.191 1.102)" fill="none" stroke="#e02b1a" stroke-miterlimit="10" stroke-width="1"/>
      <path id="Path_66" data-name="Path 66" d="M20.59,13.119l-.185-.557c-.02-.059,0-.132.044-.132h.372c.04,0,.064.073.044.132l-.185.557C20.659,13.177,20.61,13.177,20.59,13.119Z" transform="translate(-5.431 1.102)" fill="none" stroke="#e02b1a" stroke-miterlimit="10" stroke-width="1"/>
      <path id="Path_67" data-name="Path 67" d="M21.446,13.119l-.185-.557c-.02-.059,0-.132.044-.132h.372c.04,0,.064.073.044.132l-.185.557C21.515,13.177,21.466,13.177,21.446,13.119Z" transform="translate(-5.671 1.102)" fill="none" stroke="#e02b1a" stroke-miterlimit="10" stroke-width="1"/>
      <path id="Path_68" data-name="Path 68" d="M30.819,10.991c-.611.078-9.273-2.428-10.038-3.054s-3.82-6.815-3.82-6.815H15.33s-3.058,6.186-3.821,6.815S2.083,11.069,1.472,10.991c-.488-.064-.3.521.757.763a4.391,4.391,0,0,0,.975.1H29.087a4.391,4.391,0,0,0,.975-.1C31.115,11.512,31.307,10.928,30.819,10.991Z" transform="translate(-0.074)" fill="none" stroke="#e02b1a" stroke-miterlimit="10" stroke-width="2"/>
      <path id="Path_69" data-name="Path 69" d="M16.6,11.852l-13.978-.1L3,12.387H30.244l.379-.636Z" transform="translate(-0.552 1.032)" fill="none" stroke="#e02b1a" stroke-miterlimit="10" stroke-width="1"/>
      <path id="Path_70" data-name="Path 70" d="M40.235,13.119l.185-.557c.02-.059,0-.132-.044-.132h-.372c-.04,0-.064.073-.044.132l.185.557C40.166,13.177,40.216,13.177,40.235,13.119Z" transform="translate(-10.783 1.102)" fill="none" stroke="#e02b1a" stroke-miterlimit="10" stroke-width="1"/>
      <path id="Path_71" data-name="Path 71" d="M39.379,13.119l.185-.557c.02-.059,0-.132-.044-.132h-.372c-.04,0-.064.073-.044.132l.185.557C39.31,13.177,39.359,13.177,39.379,13.119Z" transform="translate(-10.492 1.102)" fill="none" stroke="#e02b1a" stroke-miterlimit="10" stroke-width="1"/>
      <path id="Path_72" data-name="Path 72" d="M38.523,13.119l.185-.557c.02-.059,0-.132-.044-.132h-.372c-.04,0-.064.073-.044.132l.185.557C38.454,13.177,38.5,13.177,38.523,13.119Z" transform="translate(-10.201 1.102)" fill="none" stroke="#e02b1a" stroke-miterlimit="10" stroke-width="1"/>
      <path id="Path_73" data-name="Path 73" d="M37.667,13.119l.185-.557c.02-.059,0-.132-.044-.132h-.372c-.04,0-.064.073-.044.132l.185.557C37.6,13.177,37.647,13.177,37.667,13.119Z" transform="translate(-9.91 1.102)" fill="none" stroke="#e02b1a" stroke-miterlimit="10" stroke-width="1"/>
      <path id="Path_74" data-name="Path 74" d="M36.811,13.119,37,12.561c.02-.059,0-.132-.044-.132h-.372c-.04,0-.064.073-.044.132l.185.557C36.742,13.177,36.791,13.177,36.811,13.119Z" transform="translate(-9.619 1.102)" fill="none" stroke="#e02b1a" stroke-miterlimit="10" stroke-width="1"/>
      <path id="Path_75" data-name="Path 75" d="M35.953,13.119l.185-.557c.02-.059,0-.132-.044-.132h-.372c-.04,0-.064.073-.044.132l.185.557C35.885,13.177,35.934,13.177,35.953,13.119Z" transform="translate(-9.327 1.102)" fill="none" stroke="#e02b1a" stroke-miterlimit="10" stroke-width="1"/>
      <path id="Path_76" data-name="Path 76" d="M35.1,13.119l.185-.557c.02-.059,0-.132-.044-.132h-.372c-.04,0-.064.073-.044.132l.185.557C35.029,13.177,35.077,13.177,35.1,13.119Z" transform="translate(-9.036 1.102)" fill="none" stroke="#e02b1a" stroke-miterlimit="10" stroke-width="1"/>
      <path id="Path_77" data-name="Path 77" d="M34.24,13.119l.185-.557c.02-.059,0-.132-.044-.132H34.01c-.04,0-.064.073-.044.132l.185.557C34.173,13.177,34.22,13.177,34.24,13.119Z" transform="translate(-9.228 1.102)" fill="none" stroke="#e02b1a" stroke-miterlimit="10" stroke-width="1"/>
      <path id="Path_78" data-name="Path 78" d="M33.384,13.119l.185-.557c.02-.059,0-.132-.044-.132h-.372c-.04,0-.064.073-.044.132l.185.557C33.315,13.177,33.364,13.177,33.384,13.119Z" transform="translate(-8.988 1.102)" fill="none" stroke="#e02b1a" stroke-miterlimit="10" stroke-width="1"/>
      <path id="Path_79" data-name="Path 79" d="M32.528,13.119l.185-.557c.02-.059,0-.132-.044-.132H32.3c-.04,0-.064.073-.044.132l.185.557C32.459,13.177,32.508,13.177,32.528,13.119Z" transform="translate(-8.748 1.102)" fill="none" stroke="#e02b1a" stroke-miterlimit="10" stroke-width="1"/>
      <path id="Path_80" data-name="Path 80" d="M31.672,13.119l.185-.557c.02-.059,0-.132-.044-.132h-.372c-.04,0-.064.073-.044.132l.185.557C31.6,13.177,31.652,13.177,31.672,13.119Z" transform="translate(-8.509 1.102)" fill="none" stroke="#e02b1a" stroke-miterlimit="10" stroke-width="1"/>
      <path id="Path_81" data-name="Path 81" d="M30.816,13.119,31,12.561c.02-.059,0-.132-.044-.132h-.372c-.04,0-.064.073-.044.132l.185.557C30.747,13.177,30.8,13.177,30.816,13.119Z" transform="translate(-8.269 1.102)" fill="none" stroke="#e02b1a" stroke-miterlimit="10" stroke-width="1"/>
      <path id="Path_82" data-name="Path 82" d="M29.96,13.119l.185-.557c.02-.059,0-.132-.044-.132h-.372c-.04,0-.064.073-.044.132l.185.557C29.89,13.177,29.94,13.177,29.96,13.119Z" transform="translate(-8.029 1.102)" fill="none" stroke="#e02b1a" stroke-miterlimit="10" stroke-width="1"/>
      <path id="Path_83" data-name="Path 83" d="M29.1,13.119l.185-.557c.02-.059,0-.132-.044-.132h-.372c-.04,0-.064.073-.044.132l.185.557C29.034,13.177,29.084,13.177,29.1,13.119Z" transform="translate(-7.79 1.102)" fill="none" stroke="#e02b1a" stroke-miterlimit="10" stroke-width="1"/>
      <path id="Path_84" data-name="Path 84" d="M28.247,13.119l.185-.557c.02-.059,0-.132-.044-.132h-.372c-.04,0-.064.073-.044.132l.185.557C28.178,13.177,28.228,13.177,28.247,13.119Z" transform="translate(-7.55 1.102)" fill="none" stroke="#e02b1a" stroke-miterlimit="10" stroke-width="1"/>
      <path id="Path_85" data-name="Path 85" d="M27.391,13.119l.185-.557c.02-.059,0-.132-.044-.132h-.372c-.04,0-.064.073-.044.132l.185.557C27.322,13.177,27.371,13.177,27.391,13.119Z" transform="translate(-7.31 1.102)" fill="none" stroke="#e02b1a" stroke-miterlimit="10" stroke-width="1"/>
      <path id="Path_86" data-name="Path 86" d="M26.535,13.119l.185-.557c.02-.059,0-.132-.044-.132H26.3c-.04,0-.064.073-.044.132l.185.557C26.466,13.177,26.515,13.177,26.535,13.119Z" transform="translate(-7.07 1.102)" fill="none" stroke="#e02b1a" stroke-miterlimit="10" stroke-width="1"/>
      <path id="Path_87" data-name="Path 87" d="M25.678,13.119l.185-.557c.02-.059,0-.132-.044-.132h-.37c-.04,0-.064.073-.044.132l.185.557C25.61,13.177,25.659,13.177,25.678,13.119Z" transform="translate(-6.831 1.102)" fill="none" stroke="#e02b1a" stroke-miterlimit="10" stroke-width="1"/>
      <path id="Path_88" data-name="Path 88" d="M24.821,13.119l.185-.557c.02-.059,0-.132-.044-.132h-.37c-.04,0-.064.073-.044.132l.185.557C24.754,13.177,24.8,13.177,24.821,13.119Z" transform="translate(-6.591 1.102)" fill="none" stroke="#e02b1a" stroke-miterlimit="10" stroke-width="1"/>
      <path id="Path_89" data-name="Path 89" d="M23.965,13.119l.185-.557c.02-.059,0-.132-.044-.132h-.37c-.04,0-.064.073-.044.132l.185.557C23.9,13.177,23.945,13.177,23.965,13.119Z" transform="translate(-6.351 1.102)" fill="none" stroke="#e02b1a" stroke-miterlimit="10" stroke-width="1"/>
      <path id="Path_90" data-name="Path 90" d="M23.109,13.119l.185-.557c.02-.059,0-.132-.044-.132h-.37c-.04,0-.064.073-.044.132l.185.557C23.04,13.177,23.089,13.177,23.109,13.119Z" transform="translate(-6.112 1.102)" fill="none" stroke="#e02b1a" stroke-miterlimit="10" stroke-width="1"/>
      <path id="Path_91" data-name="Path 91" d="M22.252,13.119l.185-.557c.02-.059,0-.132-.044-.132h-.372c-.04,0-.064.073-.044.132l.185.557C22.183,13.177,22.232,13.177,22.252,13.119Z" transform="translate(-5.871 1.102)" fill="none" stroke="#e02b1a" stroke-miterlimit="10" stroke-width="1"/>
      <path id="Path_92" data-name="Path 92" d="M8.7,13.119v3.311H9.31l-.044-3.311-.291-.557Z" transform="translate(-2.154 1.291)" fill="none" stroke="#e02b1a" stroke-miterlimit="10" stroke-width="0.5"/>
      <path id="Path_93" data-name="Path 93" d="M18.172,13.26v3.311h.609l-.044-3.311-.291-.557Z" transform="translate(-4.803 1.307)" fill="none" stroke="#e02b1a" stroke-miterlimit="10" stroke-width="0.5"/>
      <path id="Path_94" data-name="Path 94" d="M24.9,13.119v3.311h.609l-.044-3.311-.291-.557Z" transform="translate(-6.684 1.291)" fill="none" stroke="#e02b1a" stroke-miterlimit="10" stroke-width="0.5"/>
      <path id="Path_95" data-name="Path 95" d="M34.319,13.119v3.311h.609l-.044-3.311-.291-.557Z" transform="translate(-9.318 1.291)" fill="none" stroke="#e02b1a" stroke-miterlimit="10" stroke-width="0.5"/>
      <path id="Path_96" data-name="Path 96" d="M9.4,16.571H8.41v1.462H9.4Z" transform="translate(-2.066 1.555)" fill="none" stroke="#e02b1a" stroke-miterlimit="10" stroke-width="1"/>
      <path id="Path_97" data-name="Path 97" d="M18.875,16.571h-.995v1.462h.995Z" transform="translate(-4.706 1.555)" fill="none" stroke="#e02b1a" stroke-miterlimit="10" stroke-width="1"/>
      <path id="Path_98" data-name="Path 98" d="M25.6,16.571h-.995v1.462H25.6Z" transform="translate(-6.582 1.555)" fill="none" stroke="#e02b1a" stroke-miterlimit="10" stroke-width="1"/>
      <path id="Path_99" data-name="Path 99" d="M35.022,16.571h-.995v1.462h.995Z" transform="translate(-9.208 1.555)" fill="none" stroke="#e02b1a" stroke-miterlimit="10" stroke-width="1"/>
      <path id="Path_100" data-name="Path 100" d="M1,24.878l1.168-6.844h27.82L31,24.878Z" transform="translate(0 2.245)" fill="none" stroke="#e02b1a" stroke-miterlimit="10" stroke-width="0.8"/>
      <path id="Path_101" data-name="Path 101" d="M2.289,19.454H30.744" transform="translate(-0.438 1.732)" fill="none" stroke="#e02b1a" stroke-miterlimit="10" stroke-width="0.8"/>
      <path id="Path_102" data-name="Path 102" d="M23.87,19.454H15.8v1.281H23.87Z" transform="translate(-3.799 1.831)" fill="none" stroke="#e02b1a" stroke-miterlimit="10" stroke-width="0.8"/>
      <path id="Path_103" data-name="Path 103" d="M24.553,20.733H13.906v1.533H24.553Z" transform="translate(-3.147 2.245)" fill="none" stroke="#e02b1a" stroke-miterlimit="10" stroke-width="0.8"/>
      <path id="Path_104" data-name="Path 104" d="M25.1,22.266H12.194v1.475H25.1Z" transform="translate(-2.563 2.245)" fill="none" stroke="#e02b1a" stroke-miterlimit="10" stroke-width="0.8"/>
      <path id="Path_105" data-name="Path 105" d="M27.836,23.741h-16.5v1.135h16.5Z" transform="translate(-3.515 2.245)" fill="none" stroke="#e02b1a" stroke-miterlimit="10" stroke-width="0.8"/>
    </g>
  </g>
</svg>
