<svg xmlns="http://www.w3.org/2000/svg" xmlns:xlink="http://www.w3.org/1999/xlink" width="35" height="35" viewBox="0 0 35 35">
  <defs>
    <clipPath id="clip-ic_opd_by_design">
      <rect width="35" height="35"/>
    </clipPath>
  </defs>
  <g id="ic_opd_by_design" clip-path="url(#clip-ic_opd_by_design)">
    <g id="Group_16" data-name="Group 16" transform="translate(2 2)">
      <path id="Path_32" data-name="Path 32" d="M15.5,6.98a2.513,2.513,0,0,1,2.477,2.094l0,.8A2.5,2.5,0,1,1,15.5,6.98Z" fill="#b21e20"/>
      <path id="Path_33" data-name="Path 33" d="M19.01,30V25.38A1.383,1.383,0,0,0,17.63,24H14.37A1.366,1.366,0,0,0,13,25.37V30H10V26a1.981,1.981,0,0,0-2-2,2,2,0,0,0-2,2v4H3V12a1,1,0,0,1,0-2H8V4.2c0-.067,0-.134.009-.2H8A1,1,0,0,1,8,2H24a1,1,0,0,1,0,2h-.009c.006.066.009.133.009.2V10h5a1,1,0,0,1,0,2V30ZM18.97,7.04a2.505,2.505,0,0,1,.73-1.77A.165.165,0,0,0,19.59,5l-2.25.01a.15.15,0,0,0-.11.26,2.522,2.522,0,0,1,.74,1.72A3.506,3.506,0,0,0,12,9.49a3.411,3.411,0,0,0,1.07,2.5H11.51a.5.5,0,0,0,0,1l4-.01a2.737,2.737,0,0,0,.5-.04,3.48,3.48,0,0,0,2.957-2.95h.013V9.913a2.935,2.935,0,0,0,.03-.443,3.629,3.629,0,0,0-.033-.454ZM11.5,18h3.01a.508.508,0,0,0,.5-.5V15.49a.5.5,0,0,0-.5-.5H11.5a.5.5,0,0,0-.5.5V17.5A.5.5,0,0,0,11.5,18Zm9.01,0a.508.508,0,0,0,.5-.5V15.49a.5.5,0,0,0-.5-.5H17.5a.5.5,0,0,0-.5.5V17.5a.5.5,0,0,0,.5.5ZM11.5,22h3.01a.508.508,0,0,0,.5-.5V19.49a.5.5,0,0,0-.5-.5H11.5a.5.5,0,0,0-.5.5V21.5A.5.5,0,0,0,11.5,22Zm9.01,0a.508.508,0,0,0,.5-.5V19.49a.5.5,0,0,0-.5-.5H17.5a.5.5,0,0,0-.5.5V21.5a.5.5,0,0,0,.5.5ZM6.4,21a.619.619,0,0,0,.61-.61V15.61A.606.606,0,0,0,6.4,15H4.62a.606.606,0,0,0-.61.61v4.78a.606.606,0,0,0,.61.61Zm21,0a.619.619,0,0,0,.61-.61V15.61A.606.606,0,0,0,27.4,15H25.62a.606.606,0,0,0-.61.61v4.78a.606.606,0,0,0,.61.61Z" fill="#b21e20"/>
      <path id="Path_34" data-name="Path 34" d="M9,30v-.45A.555.555,0,0,0,8.45,29h-.9a.555.555,0,0,0-.55.55V30ZM7.5,26a.5.5,0,0,1,0-1h1a.5.5,0,0,1,0,1Z" fill="#b21e20"/>
    </g>
  </g>
</svg>
