<svg xmlns="http://www.w3.org/2000/svg" xmlns:xlink="http://www.w3.org/1999/xlink" width="35" height="35" viewBox="0 0 35 35">
  <defs>
    <clipPath id="clip-path">
      <rect id="Rectangle_7" data-name="Rectangle 7" width="30" height="30" transform="translate(0.182 0.818)" fill="#fff"/>
    </clipPath>
    <clipPath id="clip-ic_ppid_active_by_design">
      <rect width="35" height="35"/>
    </clipPath>
  </defs>
  <g id="ic_ppid_active_by_design" clip-path="url(#clip-ic_ppid_active_by_design)">
    <g id="Group_13" data-name="Group 13" transform="translate(1.818 1.182)" clip-path="url(#clip-path)">
      <path id="Path_25" data-name="Path 25" d="M4.045,8.545v20h22.5v2.5H4.045a2.5,2.5,0,0,1-2.5-2.5v-20ZM20.3,12.3H27.17L20.3,5.42ZM9.045,3.545h12.5l7.5,7.5v12.5a2.5,2.5,0,0,1-2.5,2.5H9.045a2.5,2.5,0,0,1-2.5-2.5V6.045a2.5,2.5,0,0,1,2.5-2.5Zm0,2.5v17.5h17.5V14.8H17.8V6.045Z" transform="translate(-0.114 -0.227)" fill="#fefefe"/>
    </g>
  </g>
</svg>
