<svg xmlns="http://www.w3.org/2000/svg" xmlns:xlink="http://www.w3.org/1999/xlink" width="35" height="35" viewBox="0 0 35 35">
  <defs>
    <clipPath id="clip-ic_silpusitron_active_by_design">
      <rect width="35" height="35"/>
    </clipPath>
  </defs>
  <g id="ic_silpusitron_active_by_design" clip-path="url(#clip-ic_silpusitron_active_by_design)">
    <path id="Path_28" data-name="Path 28" d="M20.531,13.766a2.63,2.63,0,0,1,2.63,2.63v7.3a6.43,6.43,0,0,1-12.859,0V16.4a2.63,2.63,0,0,1,2.63-2.63Zm0,1.753h-7.6a.876.876,0,0,0-.877.877v7.3a4.677,4.677,0,1,0,9.353,0V16.4a.877.877,0,0,0-.877-.877Zm-15.2-1.753h4.858a3.791,3.791,0,0,0-.955,1.753h-3.9a.877.877,0,0,0-.877.877v6.135a3.508,3.508,0,0,0,4.954,3.2,7.382,7.382,0,0,0,.659,1.627A5.261,5.261,0,0,1,2.7,22.531V16.4a2.63,2.63,0,0,1,2.63-2.63Zm22.792,0a2.63,2.63,0,0,1,2.63,2.63v6.136a5.26,5.26,0,0,1-7.361,4.824l.066-.119a7.471,7.471,0,0,0,.6-1.507A3.507,3.507,0,0,0,29,22.532V16.4a.877.877,0,0,0-.875-.877h-3.9a3.789,3.789,0,0,0-.956-1.753h4.851Zm-11.4-9.351a4.091,4.091,0,1,1-2.893,1.2,4.091,4.091,0,0,1,2.893-1.2Zm9.354,1.169A3.507,3.507,0,1,1,23.6,6.611a3.506,3.506,0,0,1,2.479-1.027Zm-18.708,0A3.506,3.506,0,1,1,4.894,6.611,3.506,3.506,0,0,1,7.373,5.584Zm9.354.584a2.338,2.338,0,1,0,1.653.685,2.338,2.338,0,0,0-1.653-.685Zm9.354,1.169a1.753,1.753,0,1,0,1.24.514,1.753,1.753,0,0,0-1.24-.514Zm-18.708,0a1.753,1.753,0,1,0,1.24.514,1.753,1.753,0,0,0-1.24-.514Z" transform="translate(1.299 0.584)" fill="#fff"/>
  </g>
</svg>
