<svg xmlns="http://www.w3.org/2000/svg" xmlns:xlink="http://www.w3.org/1999/xlink" width="35" height="35" viewBox="0 0 35 35">
  <defs>
    <clipPath id="clip-path">
      <rect id="Rectangle_9" data-name="Rectangle 9" width="30" height="30" fill="#fff"/>
    </clipPath>
    <clipPath id="clip-ic_send_by_design">
      <rect width="35" height="35"/>
    </clipPath>
  </defs>
  <g id="ic_send_by_design" clip-path="url(#clip-ic_send_by_design)">
    <g id="Group_15" data-name="Group 15" transform="translate(3 3)" clip-path="url(#clip-path)">
      <path id="Path_31" data-name="Path 31" d="M25.313,4.415a1.25,1.25,0,0,1,1.479,1.661l-7.5,19.375a1.25,1.25,0,0,1-2.03.452L13.034,21.86l-1.5,1.5a1.262,1.262,0,0,1-2.155-.892V18.36L2.886,12.154a1.25,1.25,0,0,1,.553-2.114L25.314,4.415ZM22.67,9.8l-10,8.259L17.635,22.8ZM20.7,8.184,6.239,11.9l4.615,4.413L20.7,8.181Z" fill="#fff"/>
    </g>
  </g>
</svg>
