<svg xmlns="http://www.w3.org/2000/svg" xmlns:xlink="http://www.w3.org/1999/xlink" width="35" height="35" viewBox="0 0 35 35">
  <defs>
    <clipPath id="clip-ic_ulpim_active_by_design">
      <rect width="35" height="35"/>
    </clipPath>
  </defs>
  <g id="ic_ulpim_active_by_design" clip-path="url(#clip-ic_ulpim_active_by_design)">
    <path id="Path_27" data-name="Path 27" d="M28.523,6.023H6.023A2.045,2.045,0,0,0,3.977,8.068V24.432a2.045,2.045,0,0,0,2.045,2.045h7.607l1.892,3.158a2.033,2.033,0,0,0,3.5,0l1.892-3.158h7.607a2.045,2.045,0,0,0,2.045-2.045V8.068a2.045,2.045,0,0,0-2.045-2.045Zm0,18.409H20.916a2.058,2.058,0,0,0-1.751,1l-1.892,3.158-1.892-3.158a2.058,2.058,0,0,0-1.751-1H6.023V8.068h22.5ZM15.739,16.25a1.534,1.534,0,1,1,.449,1.085A1.535,1.535,0,0,1,15.739,16.25Zm-6.136,0a1.534,1.534,0,1,1,.449,1.085A1.534,1.534,0,0,1,9.6,16.25Zm12.273,0a1.534,1.534,0,1,1,.449,1.085A1.534,1.534,0,0,1,21.875,16.25Z" transform="translate(1.023 -0.023)" fill="#fff"/>
  </g>
</svg>
