<svg xmlns="http://www.w3.org/2000/svg" xmlns:xlink="http://www.w3.org/1999/xlink" width="35" height="35" viewBox="0 0 35 35">
  <defs>
    <clipPath id="clip-path">
      <rect id="Rectangle_12" data-name="Rectangle 12" width="30" height="25" transform="translate(0.727)" fill="#fff"/>
    </clipPath>
    <clipPath id="clip-ic_wisata_by_design">
      <rect width="35" height="35"/>
    </clipPath>
  </defs>
  <g id="ic_wisata_by_design" clip-path="url(#clip-ic_wisata_by_design)">
    <g id="Group_18" data-name="Group 18" transform="translate(2.273 5)" clip-path="url(#clip-path)">
      <path id="Path_42" data-name="Path 42" d="M21.639,18.624h1.743V20.8H21.639Zm6.023,0h1.743V20.8H27.663ZM26.2,10.9V8.722H23.786v1.06l.9,1.118Z" transform="translate(-3.485 0.363)" fill="#b21e20"/>
      <path id="Path_43" data-name="Path 43" d="M28.687,23.034V18.441h.554l.515-.636-6.1-7.627H22.9V11.5H21.122l-1.058-1.322h-2.93L11.04,17.8l.515.644h.816v4.593H10.778C8.4,20.185,7.763,13.725,7.985,8.92l.039-.1h.019a3.005,3.005,0,0,1,2.54,1.6l.006.01a5.232,5.232,0,0,1,.694,2.651,5.4,5.4,0,0,1-.345,1.921l.009-.027a3.034,3.034,0,0,0,1.265-.812l0,.005a4.5,4.5,0,0,0,.9-1.508,5.384,5.384,0,0,0,.318-1.839,5.183,5.183,0,0,0-.7-2.652l.007.011A3.248,3.248,0,0,0,11.2,6.774a2.507,2.507,0,0,0-1.9-.024l.022-.007a3.452,3.452,0,0,1,.743-.44l.027-.01a2.671,2.671,0,0,1,1.136-.251,3.005,3.005,0,0,1,2.318,1.181h0a4.548,4.548,0,0,0-.078-1.755l.006.026a4.25,4.25,0,0,0-.644-1.37A3.307,3.307,0,0,0,11.8,3.182a2.646,2.646,0,0,0-1.239-.359A2.6,2.6,0,0,0,9.306,3.1l.021-.009a3.835,3.835,0,0,0-.585.316L8.766,3.4a5.609,5.609,0,0,0-.251-.947l.01.03C7.792.424,6.11-.547,4.766.3a2.759,2.759,0,0,0-.908.99l-.005.01a2.676,2.676,0,0,1,1.331.57,3.561,3.561,0,0,1,.985,1.256l.008.017a3.69,3.69,0,0,0-.983-.434L5.165,2.7A3.546,3.546,0,0,0,.78,5.845,4.834,4.834,0,0,0,.87,7.732L.865,7.705a3.828,3.828,0,0,1,1.728-1.4A3.069,3.069,0,0,1,4.65,6.245l-.027-.007a3.493,3.493,0,0,1,.925.389l-.024-.014a2.835,2.835,0,0,0-1.975.408A3.9,3.9,0,0,0,2.094,8.738l-.009.021a5.72,5.72,0,0,0-.536,2.455,5.267,5.267,0,0,0,1.64,3.952l.013.01a2.988,2.988,0,0,0,1.424.675l.017,0a5.985,5.985,0,0,1-.017-5.016l-.01.023A4.178,4.178,0,0,1,5.646,9.454a3.165,3.165,0,0,1,1.41-.727l.021,0C5.9,15.445,5.569,20.128,6.543,23.031H3.7V24.99h26.79V23.031H28.687Zm-6.625-4.486h5.972v4.486H22.062Zm-9.051-.89L17.136,12.5l4.125,5.156v5.376H16.732V18.988H14.441v4.046H13.006V17.657Z" transform="translate(0 0)" fill="#b21e20"/>
    </g>
  </g>
</svg>
